<?xml version="1.0" encoding="utf-8"?>
<!-- Generator: Adobe Illustrator 21.0.0, SVG Export Plug-In . SVG Version: 6.00 Build 0)  -->
<svg version="1.1" xmlns="http://www.w3.org/2000/svg" xmlns:xlink="http://www.w3.org/1999/xlink" x="0px" y="0px"
	 viewBox="0 0 3710 3710" style="enable-background:new 0 0 3710 3710;" xml:space="preserve">
<style type="text/css">
	.st0{fill:#FFFFFF;}
	.st1{fill:url(#SVGID_1_);}
	.st2{fill:#91B3FA;}
	.st3{fill:#BDD0FB;}
	.st4{fill:url(#SVGID_2_);}
	.st5{fill:url(#SVGID_3_);}
	.st6{fill:url(#SVGID_4_);}
	.st7{fill:url(#SVGID_5_);}
	.st8{fill:#1F5AA9;}
	.st9{fill:url(#SVGID_6_);}
	.st10{fill:url(#SVGID_7_);}
	.st11{opacity:0.78;fill:#FFFFFF;}
	.st12{fill:url(#SVGID_8_);}
	.st13{fill:url(#SVGID_9_);}
	.st14{fill:url(#SVGID_10_);}
	.st15{fill:url(#SVGID_11_);}
	.st16{fill:url(#SVGID_12_);}
	.st17{fill:url(#SVGID_13_);}
	.st18{fill:url(#SVGID_14_);}
	.st19{fill:url(#SVGID_15_);}
	.st20{fill:url(#SVGID_16_);}
	.st21{fill:url(#SVGID_17_);}
	.st22{fill:url(#SVGID_18_);}
	.st23{fill:url(#SVGID_19_);}
	.st24{fill:url(#SVGID_20_);}
	.st25{fill:url(#SVGID_21_);}
	.st26{fill:url(#SVGID_22_);}
	.st27{fill:url(#SVGID_23_);}
</style>
<g id="Background">
	<g>
		<g>
			<rect class="st0" width="3710" height="3710"/>
		</g>
	</g>
</g>
<g id="Illustration">
	<g>
		<linearGradient id="SVGID_1_" gradientUnits="userSpaceOnUse" x1="3717.6855" y1="3793.491" x2="1226.2111" y2="699.2361">
			<stop  offset="0" style="stop-color:#DAE3FE"/>
			<stop  offset="1" style="stop-color:#E9EFFD"/>
		</linearGradient>
		<path class="st1" d="M3032.3,2573.2c-57.2,60.2-111.4,99.1-154.2,129.8c-502.9,360.8-1097.9,255.7-1224.4,230
			c-186.8-37.9-547.7-111.2-808.7-418.2C450.1,2050.5,511.6,1318.9,817.9,836c56-88.3,351.9-578.6,953.4-657.2
			c364-47.6,788.3,48.4,1095.6,305.8C3511.9,1025,3465.9,2116.7,3032.3,2573.2z"/>
		<g>
			<g>
				<path class="st2" d="M1212.8,2258.5c10.6,111.6,35.6,259.1,65.6,386.2h18.8c-38.8-153.4-74.5-363.5-64-605.7
					c10.6-244.2,70.4-540.7-41.1-682.4c-92.8-117.9-486.7-135.5-616.2-138.1c-16.2-0.3-25.4,18.3-15.4,31
					c49.7,62.5,153.6,207.2,162.7,333.5c11.9,166.5,141.4,297.3,270,351.7S1191.1,2030.7,1212.8,2258.5z"/>
				<path class="st3" d="M737.8,1321.6c79.7,20.2,155,56.6,221,106.3c33,24.8,63,53.9,88.8,86.4c25.5,32.7,47,68.9,61.9,107.8
					l5.5,14.6c1.8,4.9,3.2,9.9,4.7,14.9c1.5,5,3.1,10,4.4,14.9l3.9,14.8c5.3,19.7,10.5,39.5,15.5,59.3c10,39.6,19.5,79.3,28.3,119.2
					c17.6,79.8,32.8,160.1,43,241.3c0.2,1.9-1.1,3.7-3.1,4c-1.9,0.2-3.6-1-3.9-2.9l0-0.1c-7.3-40-15.3-79.9-24.1-119.7
					c-8.6-39.8-17.7-79.5-27.2-119l-14.5-59.3l-15.2-59.1c-5-19.7-10.3-39.4-15.6-59l-4-14.7c-1.3-4.9-2.9-9.6-4.3-14.4
					c-1.5-4.8-2.8-9.6-4.5-14.3l-5.2-14c-14-37.4-34.6-72.1-58.6-104c-12.4-15.7-25.3-31.1-39.7-45.1l-5.3-5.4l-5.5-5.2
					c-3.7-3.4-7.3-6.9-11-10.3c-7.6-6.6-15.1-13.3-23.1-19.4c-31.3-25.3-65.7-46.8-101.5-65.6c-35.8-18.8-73.4-34.7-112-46.4
					l-0.2-0.1c-1.5-0.5-2.4-2.1-1.9-3.6C734.8,1322.1,736.4,1321.2,737.8,1321.6z"/>
			</g>
			<g>
				<path class="st3" d="M1289.4,2486c67.4,98.9,58.7,154.2,60.8,201.1c0.4,8.3,0.8,20.1,1.8,34h18.4c-3.8-19.1-6.4-38.3-7.4-57.2
					c-6.6-129.4-35.8-350.4-147.4-482.6c-111.6-132.2-233.9-144.2-387.9-24.1c-128.4,100.1-208.4,150.7-255.4,160
					c-11.6,2.3-17.6,15.5-11.9,25.9c30.1,55.5,115.3,182.9,258.2,173.9C1001,2505.7,1222,2387.1,1289.4,2486z"/>
				<linearGradient id="SVGID_2_" gradientUnits="userSpaceOnUse" x1="878.9706" y1="2376.1416" x2="1344.6471" y2="2376.1416">
					<stop  offset="0" style="stop-color:#DAE3FE"/>
					<stop  offset="1" style="stop-color:#E9EFFD"/>
				</linearGradient>
				<path class="st4" d="M879.9,2316.5c10.1-9.6,20.8-18.3,31.8-26.6c11-8.3,22.4-16.3,34.2-23.5c23.6-14.6,48.7-27,75.5-35.5
					c13.4-4.2,27.2-7.5,41.3-9.3c14.1-1.7,28.5-1.9,42.9-0.2c3.6,0.6,7.2,0.9,10.7,1.7c3.5,0.8,7.1,1.5,10.5,2.5l20.1,6.2l19.7,7.6
					l19.1,9.2c25,13.2,47.6,31,66.4,51.9c19,20.9,33.8,45,46,69.9l4.6,9.4c1.6,3.1,2.7,6.4,4.1,9.6c2.6,6.4,5.4,12.8,7.8,19.3
					l6.8,19.6c2.4,6.5,3.9,13.2,5.9,19.9c7.6,26.5,12.9,53.6,17.5,80.7c0.3,1.5-0.8,2.9-2.3,3.2c-1.4,0.2-2.8-0.7-3.2-2.1l0-0.1
					c-6.4-26.5-12.6-53.1-21.4-78.8c-4-13-9.1-25.5-13.8-38.2c-2.5-6.3-5.4-12.4-8.1-18.5c-1.4-3.1-2.6-6.2-4.2-9.2l-4.7-8.9
					c-12.4-23.8-27.5-46.2-45.6-65.7c-18-19.5-39.5-35.7-62.9-48l-18-8.5l-18.6-7.1l-19.1-5.8c-3.2-0.9-6.3-1.5-9.4-2.3
					c-3.1-0.7-6.4-1-9.6-1.6c-12.8-1.7-26-1.6-39-0.1c-13.1,1.4-26.1,4.1-38.9,7.9c-25.6,7.5-50.3,18.6-74,31.5
					c-11.8,6.6-23.5,13.4-34.9,20.9c-11.3,7.4-22.5,15.3-33.2,23.5l-0.1,0.1c-1.3,1-3.1,0.7-4-0.5
					C878.7,2319.2,878.8,2317.5,879.9,2316.5z"/>
			</g>
		</g>
		<g>
			<g>
				<path class="st3" d="M2618.2,1792.7c0,0,1.4-354.6,167.2-445c165.9-90.3,477.9-141,503.6-649.6c15.1-297.7,26-427.8,32.5-484.4
					c2.5-22.1-16.7-40.5-38.6-37c-155.4,24.8-660.9,130.8-775.7,470.7C2371.2,1050.3,2618.2,1792.7,2618.2,1792.7z"/>
				<linearGradient id="SVGID_3_" gradientUnits="userSpaceOnUse" x1="2578.7573" y1="999.2631" x2="3170.2959" y2="999.2631">
					<stop  offset="0" style="stop-color:#DAE3FE"/>
					<stop  offset="1" style="stop-color:#E9EFFD"/>
				</linearGradient>
				<path class="st5" d="M3159.5,314.9c-173.9,146.6-377.5,409.1-489.5,674c-14.6,43.8-56.5,136.6-78.2,302.9
					c-19.1,138.7-15.6,285.9,0.2,383.7c1,6.2,6.8,10.4,13,9.4c10.6-1.7,9.5-13.1,9.4-12.8c-16.5-166.8-2-373.5,51.5-558.9
					c68.1-227.5,212-446,359.6-630.6l15.2-18.2c114.3-138.7,137.5-139.1,127.5-149.2C3165.8,312.9,3162,312.8,3159.5,314.9z"/>
			</g>
			<g>
				<path class="st2" d="M2341.2,2511.7c-22.1,10.8,209.2-280,281.6-736.7c34.1-215.2,34.6-484.9,157.2-588.8
					c102-86.5,449.2-31.9,562.8-11.1c14.2,2.6,19,20.5,7.9,29.8c-54.5,45.8-171,153.7-201.4,262.4
					c-40,143.4-176.3,234.5-298.3,259.2c-122,24.7-189.9,48.6-249.3,243.8C2542.2,2165.5,2404,2480.9,2341.2,2511.7z"/>
				<path class="st3" d="M3183,1235.7c-144.9,6.1-300.5,72.2-379.5,196.2l-7.5,11.8c-17.2,27.7-114.8,225-168.9,388.5
					c-0.7,2,0.4,4.2,2.5,4.9c3.5,1.1,5.2-2.7,4.9-2.3c37.7-92.4,92-209.5,135.1-297.1c46.3-95.6,78.7-160.3,184.3-222.3
					c117.6-66.8,229.9-73.6,229.5-73.6c1.7-0.2,3-1.7,2.8-3.4C3186.1,1236.8,3184.7,1235.6,3183,1235.7z"/>
			</g>
			<g>
				<path class="st3" d="M2470.7,2550c-13.1,6.9,73.8-142.8,80.5-274.6c6.7-131.9,36.4-356.9,150.1-491.6
					c113.7-134.6,238.2-146.9,395.2-24.5c130.8,102,212.3,153.5,260.2,163c11.8,2.4,17.9,15.7,12.1,26.4
					c-30.7,56.5-117.4,186.3-263.1,177.1c-185.8-11.7-410.9-132.4-479.5-31.7c-68.6,100.7-59.8,157.1-61.9,204.9
					C2562.2,2346.7,2557.5,2504.2,2470.7,2550z"/>
				<linearGradient id="SVGID_4_" gradientUnits="userSpaceOnUse" x1="2569.2449" y1="1981.5609" x2="3044.9041" y2="1981.5609">
					<stop  offset="0" style="stop-color:#DAE3FE"/>
					<stop  offset="1" style="stop-color:#E9EFFD"/>
				</linearGradient>
				<path class="st6" d="M3043.8,1920.9c-56.9-54.6-149.6-108.2-230.6-98.2c-105.4,17-175.6,87.4-213.9,192.1
					c-15,44.5-21.1,68.2-30,122.8c-0.7,4.4,5.7,5.7,6.8,1.4c6.4-25.6,12.8-52.4,22.4-80.2c55.6-179,174.1-203.1,178.8-206.7
					c9,0.9,63.3-39.8,192.3,29.6c24.1,13.1,47.5,28.1,69.5,44.6l0.1,0.1c1.6,1.2,3.9,0.9,5-0.7
					C3045.3,1924.2,3045.1,1922.1,3043.8,1920.9z"/>
			</g>
		</g>
		<g>
			<g>
				<linearGradient id="SVGID_5_" gradientUnits="userSpaceOnUse" x1="1147.161" y1="2891.0085" x2="2628.7798" y2="353.021">
					<stop  offset="0" style="stop-color:#09005D"/>
					<stop  offset="1" style="stop-color:#1A0F91"/>
				</linearGradient>
				<path class="st7" d="M1121.4,281.9c-70.1,6.1-123.8,64.8-124,135.1c-1.2,430.2-3.2,1914.3,24.8,2439.5
					c3,55.6,48.6,99.4,104.3,100c275.6,3,1068.4,8.4,1518.4-20.4c93.7-6,166.7-83.6,166.6-177.6c-0.5-451.6-7.8-1721.5-69.6-2302
					c-7.4-69.5-63.3-123.8-133-129.3C2308.3,304,1510,248.1,1121.4,281.9z"/>
				<path class="st2" d="M1108,529.8c-5.4,368-20.8,1592.3,6.1,2044.2c3.9,66,55.2,118.2,118.6,120.4
					c260.8,9.1,929.7,26.7,1310.8-15.3c68.6-7.6,121.1-67,122.9-139.1c9.5-375.6,35.3-1515.9,9.1-1962.7
					c-4.2-71.3-58.6-128.2-126.9-132.8c-282.4-19-1007.6-62.9-1331.7-35.9C1156.1,413.8,1109,466.1,1108,529.8z"/>
				<path class="st8" d="M1738.2,345.9c0.2,10.2,8.3,18.4,18.5,18.7c50.2,1.5,191.6,5.9,254.8,8.1c12.5,0.4,22-11,19.4-23.1
					c-0.2-0.4-1.8-16-17.8-17.1c-42.7-3-171.7-11-256.9-6.1C1738.6,327.4,1737.6,347.3,1738.2,345.9z"/>
			</g>
		</g>
		<g>
			
				<linearGradient id="SVGID_6_" gradientUnits="userSpaceOnUse" x1="2630.395" y1="2226.8062" x2="3657.4697" y2="1034.6674" gradientTransform="matrix(0.9997 -2.560000e-02 2.560000e-02 0.9997 -1803.4362 35.3429)">
				<stop  offset="0" style="stop-color:#E1473D"/>
				<stop  offset="1" style="stop-color:#E9605A"/>
			</linearGradient>
			<circle class="st9" cx="1899.5" cy="951.5" r="765.7"/>
			<linearGradient id="SVGID_7_" gradientUnits="userSpaceOnUse" x1="2199.1477" y1="-416.2752" x2="1811.0236" y2="1355.5896">
				<stop  offset="0" style="stop-color:#FF928E"/>
				<stop  offset="1" style="stop-color:#FE7062"/>
			</linearGradient>
			<circle class="st10" cx="1899.5" cy="951.5" r="740.3"/>
			<path class="st11" d="M1281.8,673.5c-2.1,0.1-4.2-0.4-6.3-1.3c-6.9-3.3-9.8-11.5-6.6-18.4c113.3-239.5,348.1-392.5,612.7-399.3
				c42.2-1.1,84.6,1.6,126,8.1c7.5,1.2,12.7,8.2,11.5,15.8c-1.2,7.5-8.2,12.7-15.8,11.5c-39.7-6.2-80.5-8.8-121-7.8
				c-254.2,6.5-479.7,153.4-588.5,383.4C1291.6,670.5,1286.8,673.4,1281.8,673.5z"/>
			
				<ellipse transform="matrix(0.9997 -2.558775e-02 2.558775e-02 0.9997 -24.1205 49.3449)" class="st11" cx="1916.1" cy="967.2" rx="626.6" ry="626.6"/>
			<g>
				
					<linearGradient id="SVGID_8_" gradientUnits="userSpaceOnUse" x1="3354.4812" y1="2641.3438" x2="3698.7131" y2="1048.4269" gradientTransform="matrix(0.9997 -2.560000e-02 2.560000e-02 0.9997 -1803.4362 35.3429)">
					<stop  offset="0" style="stop-color:#FF928E"/>
					<stop  offset="1" style="stop-color:#FE7062"/>
				</linearGradient>
				<path class="st12" d="M1866.5,1434.4l-1.7-68.1c-71.1-1-141.8-16-192.3-36.6c-18-7.3-27.6-27.1-23-46l15.7-63.9
					c5.8-23.4,30.8-36.1,53.3-27.4c50,19.5,111.6,34.3,177.5,32.7c68.4-1.8,118.9-26.3,117.6-73.8c-1.1-42.9-41.2-67.4-136.9-90.5
					c-136.6-33.6-235.6-90.3-238.6-209.7c-2.8-107.9,74-192.2,210.3-217.7l-1.7-68.2c-0.6-21.9,16.8-40.2,38.7-40.7l40-1
					c21.9-0.6,40.2,16.8,40.7,38.7l1.6,61.2c65.8,0.9,113.9,11,152.3,23.3c19.6,6.3,30.8,27,25.9,47.1l-14.4,59.1
					c-5.6,22.8-29.4,35.8-51.6,28.1c-35.3-12.3-85.1-24.8-149.3-23.2c-81.2,2.1-103.5,36.3-102.7,66.5
					c0.9,37.1,50.3,61.4,156.7,91.1c151.9,41.4,216.1,102.4,219,214.9c2.6,103.2-71.5,197.9-219.4,224.9l2,76.3
					c0.6,21.9-16.8,40.2-38.7,40.7l-40,1C1885.3,1473.6,1867.1,1456.3,1866.5,1434.4z"/>
			</g>
		</g>
		<g>
			<linearGradient id="SVGID_9_" gradientUnits="userSpaceOnUse" x1="2661.7632" y1="1163.984" x2="3107.2605" y2="1673.605">
				<stop  offset="0" style="stop-color:#E1473D"/>
				<stop  offset="1" style="stop-color:#E9605A"/>
			</linearGradient>
			<path class="st13" d="M2790.2,1149.1c0,0,40.6,19.8,48.1,42.5c6,18.2,50.9,20.6,55.3,56.4c2.3,18.5,16,33.3,34.4,36.1
				c45.9,7,116.6,30.9,127.9,110.5c8.6,60.8-22.4,83.9-54.9,91.8c-23.9,5.9-39.8,29.1-34.9,53.2c4.6,23.1-2.3,49.9-42.4,71
				c-89.8,47.4-179.5-112.3-179.5-112.3l-18.4-278.8L2790.2,1149.1z"/>
			<linearGradient id="SVGID_10_" gradientUnits="userSpaceOnUse" x1="2676.0562" y1="1546.425" x2="2271.0574" y2="925.4258">
				<stop  offset="0" style="stop-color:#FEBBBA"/>
				<stop  offset="1" style="stop-color:#FF928E"/>
			</linearGradient>
			<path class="st14" d="M2367.4,1002.1c0,0,115.6,315,312.5,413.5c0,0-65.5,106.9-99.7,113.4c0,0-210.4-269.2-231.8-489.8
				L2367.4,1002.1z"/>
			<linearGradient id="SVGID_11_" gradientUnits="userSpaceOnUse" x1="3159.231" y1="2921.7275" x2="3261.4116" y2="2921.7275">
				<stop  offset="0" style="stop-color:#4F52FF"/>
				<stop  offset="1" style="stop-color:#4042E2"/>
			</linearGradient>
			<path class="st15" d="M3159.4,2897.2l5.8,47.8c1.1,9.1,8.2,16.2,17.3,17.3c15.3,1.7,39.9,3.5,63.9,1
				c10.6-1.1,17.4-11.8,14.2-21.9c-5.9-18.4-16.6-46.1-32.1-62.4h-53C3165.8,2878.9,3158.2,2887.5,3159.4,2897.2z"/>
			<linearGradient id="SVGID_12_" gradientUnits="userSpaceOnUse" x1="2727.4648" y1="3324.6719" x2="2874.5103" y2="1606.078">
				<stop  offset="0" style="stop-color:#FEBBBA"/>
				<stop  offset="1" style="stop-color:#FF928E"/>
			</linearGradient>
			<path class="st16" d="M2744.2,2337.5l-8.9,52.6c0,0,30,303.4,35.3,424.8c0.8,19-4.1,37.8-14.1,54.1l-52.1,84.6l132.4-78.1
				l2.6-16.2l-21.7-29.8l28.4-339.9c1.7-20-2.5-40-11.9-57.7l-27.4-51.4L2744.2,2337.5z"/>
			<linearGradient id="SVGID_13_" gradientUnits="userSpaceOnUse" x1="2684.5085" y1="2903.0718" x2="2849.8447" y2="2903.0718">
				<stop  offset="0" style="stop-color:#4F52FF"/>
				<stop  offset="1" style="stop-color:#4042E2"/>
			</linearGradient>
			<path class="st17" d="M2695.7,2965.9h42.2c7.9,0,15.4-3.6,20.2-9.9c13.2-17.1,40.5-50.5,53.5-51.4c17.6-1.2,15.3,61.3,15.3,61.3
				h9.8l12.5-77.6c3.1-19.5-6.6-38.9-24.1-48l0,0c0,0-4,29.7-25.8,42.8c-21.8,13.1-88.6,60.2-88.6,60.2s-8.2-1.2-17.2,0.5
				C2680.3,2946.1,2682.1,2965.9,2695.7,2965.9z"/>
			<linearGradient id="SVGID_14_" gradientUnits="userSpaceOnUse" x1="3023.2559" y1="3350.2439" x2="3170.3398" y2="1631.1979">
				<stop  offset="0" style="stop-color:#FEBBBA"/>
				<stop  offset="1" style="stop-color:#FF928E"/>
			</linearGradient>
			<path class="st18" d="M2925.6,2362.5c0,0,175.5,332.9,203.4,408.9c27.9,76,37.7,139.4,38,145.4c0.6,9.4,12.3,18.4,44.4,18.4
				c16.6,0,24.7-6.7,28.7-13.1c3.4-5.5,3.6-12.4,0.7-18.2c-10.2-20.5-42.4-86.2-54.3-116c-14.2-35.6-44.9-196.7-61.7-252.7
				c-16.8-56-35.8-116.8-109-172.8C3015.9,2362.5,2965.6,2313.3,2925.6,2362.5z"/>
			<linearGradient id="SVGID_15_" gradientUnits="userSpaceOnUse" x1="2731.0974" y1="1591.5759" x2="2804.6235" y2="2273.7383">
				<stop  offset="0" style="stop-color:#4F52FF"/>
				<stop  offset="1" style="stop-color:#4042E2"/>
			</linearGradient>
			<path class="st19" d="M2814.7,1817c-45.3-191.8,69.4-300.3,69.4-300.3c-72.4-69.5-204.2-101.1-204.2-101.1s-125.8,92-110.9,164
				c8.7,42.2,88.4,252.7,88.4,252.7S2731.1,1867.2,2814.7,1817z"/>
			<linearGradient id="SVGID_16_" gradientUnits="userSpaceOnUse" x1="1608.2281" y1="3873.5249" x2="2803.092" y2="2152.1111">
				<stop  offset="0" style="stop-color:#4F52FF"/>
				<stop  offset="1" style="stop-color:#4042E2"/>
			</linearGradient>
			<path class="st20" d="M2915.1,1912c-18.4-55.5-100.4-95-100.4-95c-83.6,50.2-157.3,15.3-157.3,15.3s-16.5,63.2-5.1,121.9
				c11.4,58.7,83,435.9,83,435.9c112.7,22.8,286.2-23,286.2-23C2949.6,2239.7,2933.5,1967.5,2915.1,1912z"/>
			<linearGradient id="SVGID_17_" gradientUnits="userSpaceOnUse" x1="2794.0518" y1="1707.9845" x2="2719.8018" y2="1221.9866">
				<stop  offset="0" style="stop-color:#FEBBBA"/>
				<stop  offset="1" style="stop-color:#FF928E"/>
			</linearGradient>
			<path class="st21" d="M2762.1,1288.8l36.8,165.3c3.5,14.6-9.8,12.2-24.5,9.4c-24.1-4.5-55.2-13.9-65.6-32.7
				c-1.1-1.9-1.6-4.1-1.9-6.2l-15.8-114.6c-1.3-9.1,3.7-17.9,12.1-21.6l30.5-13.5C2745.5,1269.7,2759.1,1276.4,2762.1,1288.8z"/>
			<linearGradient id="SVGID_18_" gradientUnits="userSpaceOnUse" x1="2806.2473" y1="1977.7987" x2="2964.8711" y2="1535.6768">
				<stop  offset="0" style="stop-color:#FEBBBA"/>
				<stop  offset="1" style="stop-color:#FF928E"/>
			</linearGradient>
			<path class="st22" d="M2884.1,1516.7c0,0,256.9,183.8,32.9,376.9c0,0-8.5,9.7-25.3,14.7c-8.5,2.5-33.6,21.5-46.3,31.4
				c-4.1,3.2-10,2.1-12.8-2.3l0,0c-2.2-3.4-2.4-7.7-0.7-11.4l31.8-67.3c8.8-8.2,22.4-8.8,31.9-1.4l0,0c6.1,4.8,15,2.8,18.4-4.2
				c17.3-35.3,50-139-83.8-256.2c-5-4.4-6.3-11.7-3.2-17.6C2836.3,1561.3,2857.8,1525.4,2884.1,1516.7z"/>
			<g>
				<linearGradient id="SVGID_19_" gradientUnits="userSpaceOnUse" x1="2648.8662" y1="1200.0353" x2="2901.9905" y2="1291.1602">
					<stop  offset="0" style="stop-color:#FEBBBA"/>
					<stop  offset="1" style="stop-color:#FF928E"/>
				</linearGradient>
				<path class="st23" d="M2719,1131.4c0,0-43.6,18.4-73.2,81.4c-29.6,63-7.5,92.1,20.3,96.1c27.8,4,69.4,3.4,113.4-37.3
					C2823.4,1230.9,2775.6,1109.6,2719,1131.4z"/>
				<linearGradient id="SVGID_20_" gradientUnits="userSpaceOnUse" x1="2718.2468" y1="1114.6074" x2="3163.7461" y2="1624.2305">
					<stop  offset="0" style="stop-color:#E1473D"/>
					<stop  offset="1" style="stop-color:#E9605A"/>
				</linearGradient>
				<path class="st24" d="M2749.8,1238c0,0,32.9-92.2-48.8-93.2l-19.2,13.4c0,0-30-51.1,19.2-75.5c49.2-24.4,106.8-4.2,127.7,62
					c20.9,66.3,24.5,110.7-10.3,142.4c-34.8,31.7-49.2-4.2-49.2-4.2s19-29.7,11.2-45.5c-7.7-15.9-25.5,3.3-25.5,3.3L2749.8,1238z"/>
				<linearGradient id="SVGID_21_" gradientUnits="userSpaceOnUse" x1="2649.7197" y1="1197.6637" x2="2902.8438" y2="1288.7885">
					<stop  offset="0" style="stop-color:#FEBBBA"/>
					<stop  offset="1" style="stop-color:#FF928E"/>
				</linearGradient>
				<path class="st25" d="M2759,1248.2c0,0,16.6-47.5,38.8-28.6c22.2,18.9-18,43.9-33.8,51.9L2759,1248.2z"/>
			</g>
			<g>
				<linearGradient id="SVGID_22_" gradientUnits="userSpaceOnUse" x1="2695.405" y1="1533.8075" x2="2290.4072" y2="912.8099">
					<stop  offset="0" style="stop-color:#FEBBBA"/>
					<stop  offset="1" style="stop-color:#FF928E"/>
				</linearGradient>
				<path class="st26" d="M2356.3,1059.4c-1.8,5.6,18.7,14.1,30.7-8.8c0.4-11,7.1-58.1,0.5-67c-35-47.7-102.8-107.4-102.8-107.4
					c-11.5,11.3-2,22.4-2,22.4l32.9,34.3c-6.9,12.4-15.3,22.9-19.2,38c-3,11.4-1.2,23.6,4.6,33.9c5.8,10.4,13.6,23.9,21.1,34.5
					C2336.2,1059.3,2356.3,1059.4,2356.3,1059.4z"/>
				<linearGradient id="SVGID_23_" gradientUnits="userSpaceOnUse" x1="2605.2988" y1="531.5413" x2="2094.0132" y2="1422.4961">
					<stop  offset="0" style="stop-color:#FEBBBA"/>
					<stop  offset="1" style="stop-color:#FF928E"/>
				</linearGradient>
				<path class="st27" d="M2339.7,1036c-2.5-13.8-10-51.5-15.3-60c-3.6-5.9-4.8-10.9-3.6-15.1c1-3.6,3.6-6.3,7.9-8.5l1.8-0.9
					l32.1,27.2l9.7,26l-5.7,2.1l-9.1-24.5l-27.7-23.5c-1.6,1.1-2.6,2.3-3,3.7c-0.7,2.5,0.3,5.9,3,10.2c6.9,11.2,15.7,60,16.1,62.1
					L2339.7,1036z"/>
			</g>
		</g>
		<path class="st3" d="M2502.9,2002.5H1282.7c-22.3,0-40.5-18.2-40.5-40.5v-11.9c0-22.3,18.2-40.5,40.5-40.5h1220.2
			c22.3,0,40.5,18.2,40.5,40.5v11.9C2543.4,1984.2,2525.2,2002.5,2502.9,2002.5z"/>
		<path class="st3" d="M2502.9,2200.1H1282.7c-22.3,0-40.5-18.2-40.5-40.5v-11.9c0-22.3,18.2-40.5,40.5-40.5h1220.2
			c22.3,0,40.5,18.2,40.5,40.5v11.9C2543.4,2181.9,2525.2,2200.1,2502.9,2200.1z"/>
		<path class="st3" d="M2502.9,2397.7H1282.7c-22.3,0-40.5-18.2-40.5-40.5v-11.9c0-22.3,18.2-40.5,40.5-40.5h1220.2
			c22.3,0,40.5,18.2,40.5,40.5v11.9C2543.4,2379.5,2525.2,2397.7,2502.9,2397.7z"/>
	</g>
</g>
</svg>
